<svg id="Layer_1" data-name="Layer 1" xmlns="http://www.w3.org/2000/svg" viewBox="0 0 254.13 125"><defs><style>.cls-1{fill:#3ca4c9;}.cls-2{fill:#9bffff;}.cls-3{fill:#45c3ec;}.cls-4{fill:#141422;}</style></defs><title>1</title><path class="cls-1" d="M205.39,85.54c2.18-.4,4.18-.66,6.14-1.15a43.22,43.22,0,0,0,5.95-1.84C226.16,79,230.59,72.24,232,63.22a34.58,34.58,0,0,0,.13-11.45,21.88,21.88,0,0,0-5-10.52,2,2,0,0,1-.4-2.14,21.75,21.75,0,0,0-.66-13.65,1.32,1.32,0,0,0-1.47-1,18.94,18.94,0,0,0-8,2.13c-2.12,1-4.12,2.31-6.23,3.38a3.5,3.5,0,0,1-2.18.39,58.27,58.27,0,0,0-27.7,0A3,3,0,0,1,178.4,30c-3.93-2.4-7.92-4.64-12.55-5.42l-.28-.05c-2.42-.35-2.7-.19-3.4,2.17A21.66,21.66,0,0,0,162,39.57a1.52,1.52,0,0,1-.21,1.24c-5.33,6.12-6.41,13.35-5.3,21a38,38,0,0,0,2.07,8.22c3,7.82,9.21,12,17,14,2.42.63,4.9,1,7.54,1.53a14.2,14.2,0,0,0-3.54,7.45c0,.27-.49.54-.81.67-6.33,2.44-12.55,1.47-16.51-5.06-1.88-3.11-4.47-5.41-8.15-6.11a7.86,7.86,0,0,0-2.93.12c-1,.21-1.12,1-.48,1.69a6.87,6.87,0,0,0,1.59,1.4,16.17,16.17,0,0,1,6.58,8.14c2.23,5.47,6.53,7.94,12.12,8.35a75.47,75.47,0,0,0,8.29-.28c0,.16.07.53.07.89,0,3.12.05,6.25.06,9.37,0,2.68-1.82,4.15-4.3,3.14a81.44,81.44,0,0,1-11.8-5.47C146.85,99.78,137.12,85,134.94,65.73a59.15,59.15,0,0,1,46-64.21,60,60,0,0,1,69.66,37.56,59.22,59.22,0,0,1-36.64,76.24c-3,1-4.71-.23-4.71-3.36,0-4.4,0-8.81.05-13.21C209.34,94,209,89.37,205.39,85.54Z"/><path class="cls-1" d="M174.62,97.07c-.47.21-1,.61-1.4.56s-.79-.58-1.18-.9a4,4,0,0,1,1.35-.7c.39,0,.82.37,1.23.58Z"/><path class="cls-1" d="M165.84,93.91c-.71.4-1.16.8-1.3.71a5.63,5.63,0,0,1-1.3-1.24s.57-.76.67-.71A16.35,16.35,0,0,1,165.84,93.91Z"/><path class="cls-1" d="M168.45,97.25l-1.24-1.36c.34-.23.8-.73,1-.65a6.14,6.14,0,0,1,1.4,1.07Z"/><path class="cls-1" d="M177.95,95.09l1.12,1a6.1,6.1,0,0,1-1.49,1c-.22.07-.64-.48-1-.76Z"/><path class="cls-1" d="M161.51,91.72A9.82,9.82,0,0,1,160.44,90c-.05-.15.44-.5.68-.76a8.75,8.75,0,0,1,1,1.31C162.24,90.71,161.88,91.09,161.51,91.72Z"/><path class="cls-1" d="M160.12,87.25c-.52.33-.87.66-1,.59a3.9,3.9,0,0,1-1-1c0-.07.43-.66.47-.64A17.47,17.47,0,0,1,160.12,87.25Z"/><path class="cls-2" d="M160,85.71a2.67,2.67,0,0,0-.25.31,31.72,31.72,0,0,1-3,3.93,20,20,0,0,1,2.14,4c.16.39.33.76.51,1.11a31.86,31.86,0,0,0,4-4.73,16.25,16.25,0,0,1-1.14-1.63A15.65,15.65,0,0,0,160,85.71Z"/><path class="cls-3" d="M140.7,92.3A21.92,21.92,0,0,0,130,90.13c-8.39.67-10.47,3.11-15.59,8.57l3.94,3.73c6.54-9,16.18-6.95,20.15-5.15a22.89,22.89,0,0,0,10.8,2.45c.39,0,.77,0,1.15-.08A56.37,56.37,0,0,1,145.7,94,22.89,22.89,0,0,1,140.7,92.3Z"/><path class="cls-2" d="M163.56,85.23a2.71,2.71,0,0,0-3.51.48,15.65,15.65,0,0,1,2.28,3,16.25,16.25,0,0,0,1.14,1.63q.45-.63.89-1.31A2.72,2.72,0,0,0,163.56,85.23Z"/><path class="cls-2" d="M156.8,90c-2.15,2.37-4.75,4.29-7.58,4.35A16.63,16.63,0,0,1,145.7,94a56.37,56.37,0,0,0,4.78,5.64,15.64,15.64,0,0,0,9-4.63c-.18-.36-.35-.73-.51-1.11A20,20,0,0,0,156.8,90Z"/><path class="cls-2" d="M163.53,90.39c-1.59,1.35-3.21,2.76-4.44,3.87a13.31,13.31,0,0,0,3.11,4.52c1.25-1.16,3.39-3,5.61-4.9A12.1,12.1,0,0,1,163.53,90.39Z"/><path class="cls-2" d="M173,86a2.72,2.72,0,0,0-3.83-.35c-.51.42-3,2.51-5.63,4.74a12.1,12.1,0,0,0,4.29,3.49c1.68-1.43,3.4-2.88,4.81-4A2.72,2.72,0,0,0,173,86Z"/><path class="cls-2" d="M159.09,94.26c-.75.68-1.36,1.25-1.72,1.64a2.72,2.72,0,1,0,4,3.73c.19-.2.5-.5.88-.85A13.31,13.31,0,0,1,159.09,94.26Z"/><path class="cls-3" d="M84.28,81.56a5.57,5.57,0,1,0-3.94-1.63A5.56,5.56,0,0,0,84.28,81.56Z"/><path class="cls-3" d="M51.36,70.41A5.57,5.57,0,1,0,55.31,72,5.55,5.55,0,0,0,51.36,70.41Z"/><path class="cls-3" d="M114.44,98.7A62.27,62.27,0,0,1,76,119.09V90a42.64,42.64,0,0,0,5.43-1.45V113A57.39,57.39,0,0,0,95.56,7a2.71,2.71,0,0,0-2.62,4.75,52,52,0,0,1-6.1,93.84V83.87A8.33,8.33,0,0,0,92.7,76a8.19,8.19,0,0,0-4.08-7.18C90.57,50.07,99.11,55,99.11,49.06V45.57c0-9-20.69-38.09-30.38-38.79q-.45,0-.89,0c-.3,0-.61,0-.9,0-9.69.7-30.4,29.83-30.4,38.79v3.49c0,6,8.54,1,10.49,19.75A8.18,8.18,0,0,0,42.94,76a8.32,8.32,0,0,0,5.85,7.89v21.71a52,52,0,0,1-6.1-93.84,2.72,2.72,0,0,0-1.33-5.09,2.68,2.68,0,0,0-1.3.34A57.39,57.39,0,0,0,54.22,113V88.51A42.64,42.64,0,0,0,59.64,90v29.14A62.44,62.44,0,0,1,9.41,35.26a2.71,2.71,0,1,0-5.09-1.89A67.87,67.87,0,0,0,65.07,125V90.66c1,.06,2.75.09,2.75.09s1.78,0,2.75-.09V125a67.63,67.63,0,0,0,47.81-22.56A30.34,30.34,0,0,0,114.44,98.7ZM80.34,72A5.57,5.57,0,1,1,78.7,76,5.55,5.55,0,0,1,80.34,72Zm-25,7.88A5.57,5.57,0,1,1,56.94,76,5.56,5.56,0,0,1,55.31,79.93Z"/><path class="cls-3" d="M79.75,76.65a3.7,3.7,0,0,1,1.33-2.79,5,5,0,0,1,6.41,0,3.7,3.7,0,0,1,1.33,2.79"/><path class="cls-3" d="M46.83,76.65a3.7,3.7,0,0,1,1.33-2.79,5,5,0,0,1,6.41,0,3.7,3.7,0,0,1,1.33,2.79"/><circle class="cls-4" cx="51.51" cy="76.17" r="5.53"/><circle class="cls-4" cx="84.21" cy="76.17" r="5.83"/><circle class="cls-2" cx="49.15" cy="74.23" r="1.55"/><circle class="cls-2" cx="81.98" cy="74.23" r="1.55"/><path class="cls-4" d="M67.84,85.83a3.29,3.29,0,0,0,3.29-3.29H64.55A3.29,3.29,0,0,0,67.84,85.83Z"/></svg>